<svg width="258" height="70" viewBox="0 0 258 70" fill="none" xmlns="http://www.w3.org/2000/svg">
<rect width="258" height="70" rx="16" fill="#05CEAA"/>
<circle cx="41.5637" cy="33.5637" r="20.3137" stroke="white" stroke-width="2.5"/>
<path d="M56.5197 29.5012C55.904 28.9443 55.1713 28.241 54.937 27.9771C54.468 25.2219 52.0353 23.141 49.2216 23.141C47.7561 23.141 46.3493 23.698 45.2647 24.6944L45.2354 24.7237L45.2062 24.7529L35.5541 44.049C35.3783 44.3128 35.4022 44.6204 35.6659 44.8255C35.7831 44.9134 35.9004 44.9426 36.0176 44.9426C36.1934 44.9426 36.3692 44.8547 36.4571 44.7081L46.0556 25.5149C46.935 24.7234 48.0486 24.2838 49.2211 24.2838C51.5365 24.2838 53.5004 26.0131 53.8521 28.27C53.8813 28.4458 53.8813 28.5632 54.7019 29.3251H52.7674C52.4742 29.3251 52.24 29.5304 52.2105 29.7942C52.1813 29.9113 52.1813 30.0287 52.2397 30.1458C52.5621 30.9957 52.7087 31.9045 52.7087 32.8423C52.7087 37.0922 49.2503 40.5508 45.0003 40.5508C43.828 40.5508 44.0132 40.5844 42.9873 40.0862L47.6232 30.2024C47.799 29.9386 47.7403 29.5868 47.506 29.411C47.2717 29.2352 46.8904 29.2938 46.7146 29.5281L41.6977 39.9107C41.5218 40.1744 41.5805 40.5263 41.8148 40.7021C41.8441 40.7314 41.8735 40.7608 41.9027 40.7608C43.2511 41.5228 43.4467 41.6357 45.0001 41.6357C49.8656 41.6357 53.8517 37.6788 53.8517 32.7841C53.8517 31.9927 53.7345 31.2015 53.5293 30.4393H56.1379C56.3724 30.4393 56.5774 30.2927 56.6653 30.0876C56.7537 29.8824 56.695 29.6479 56.5191 29.5015L56.5197 29.5012Z" fill="white" stroke="white" stroke-width="1.11784" stroke-linejoin="round"/>
<path d="M36.6698 35.9986C36.5857 35.9986 36.4946 35.9776 36.3965 35.9355C36.2984 35.8935 36.2073 35.8514 36.1232 35.8094L28.7447 31.6051C28.5765 31.507 28.4574 31.4019 28.3873 31.2898C28.3313 31.1637 28.3032 31.0235 28.3032 30.8694C28.3032 30.7012 28.3453 30.5611 28.4294 30.4489C28.5275 30.3228 28.6536 30.2177 28.8077 30.1336L36.0601 26.0134C36.1442 25.9714 36.2283 25.9363 36.3124 25.9083C36.3965 25.8663 36.4736 25.8452 36.5436 25.8452C36.7258 25.8312 36.88 25.8873 37.0061 26.0134C37.1322 26.1395 37.1953 26.2867 37.1953 26.4549C37.1953 26.595 37.1603 26.7071 37.0902 26.7912C37.0341 26.8753 36.943 26.9524 36.8169 27.0224L29.4174 31.1847L29.3753 30.5961L36.7328 34.7583C36.929 34.8564 37.0622 34.9545 37.1322 35.0526C37.2023 35.1367 37.2373 35.2488 37.2373 35.389C37.2373 35.5431 37.1743 35.6833 37.0481 35.8094C36.936 35.9355 36.8099 35.9986 36.6698 35.9986Z" fill="white" stroke="white" stroke-width="0.999896"/>
<path d="M92.7928 23.9713C93.312 24.2308 93.607 24.632 93.6777 25.1748C93.7721 25.7175 93.6424 26.2131 93.2884 26.6614C93.0288 27.0154 92.6866 27.216 92.2619 27.2632C91.8607 27.3104 91.4595 27.2278 91.0584 27.0154C90.374 26.6614 89.6543 26.3783 88.8991 26.1659C88.144 25.9535 87.3417 25.8473 86.4921 25.8473C85.1471 25.8473 83.9318 26.0715 82.8462 26.5199C81.7843 26.9446 80.864 27.57 80.0853 28.3959C79.3065 29.1982 78.7048 30.1539 78.28 31.2631C77.8789 32.3722 77.6783 33.5993 77.6783 34.9444C77.6783 36.431 77.9025 37.7525 78.3508 38.9088C78.7992 40.0415 79.4127 41.0091 80.1915 41.8114C80.9938 42.5901 81.9259 43.1801 82.9878 43.5812C84.0733 43.9588 85.2414 44.1476 86.4921 44.1476C87.2945 44.1476 88.0732 44.0532 88.8283 43.8644C89.6071 43.6756 90.3386 43.3925 91.023 43.0149C91.4477 42.8025 91.8607 42.7317 92.2619 42.8025C92.6866 42.8497 93.0288 43.0503 93.2884 43.4043C93.6895 43.8998 93.8311 44.4072 93.7131 44.9263C93.6188 45.4219 93.3238 45.7995 92.8282 46.059C92.2383 46.3894 91.5893 46.6726 90.8814 46.9086C90.1734 47.1445 89.4537 47.3333 88.7222 47.4749C87.9906 47.6165 87.2473 47.6873 86.4921 47.6873C84.7931 47.6873 83.1884 47.4041 81.6781 46.8378C80.1679 46.2714 78.8228 45.4455 77.6429 44.36C76.463 43.2745 75.5308 41.9412 74.8465 40.3601C74.1858 38.779 73.8554 36.9738 73.8554 34.9444C73.8554 33.1273 74.1622 31.4518 74.7757 29.918C75.4129 28.3605 76.2978 27.0272 77.4305 25.9181C78.5868 24.7854 79.9319 23.9123 81.4658 23.2987C82.9996 22.6616 84.6751 22.343 86.4921 22.343C87.6248 22.343 88.7222 22.4846 89.7841 22.7678C90.8696 23.0509 91.8725 23.4521 92.7928 23.9713ZM111.19 28.7145C111.686 28.7145 112.099 28.8915 112.429 29.2454C112.783 29.5758 112.96 30.0006 112.96 30.5197V39.8291C112.96 42.2833 112.276 44.2066 110.907 45.5989C109.538 46.9676 107.603 47.6519 105.102 47.6519C102.624 47.6519 100.701 46.9676 99.3322 45.5989C97.9871 44.2066 97.3145 42.2833 97.3145 39.8291V30.5197C97.3145 30.0006 97.4797 29.5758 97.8101 29.2454C98.1405 28.8915 98.5652 28.7145 99.0844 28.7145C99.5799 28.7145 99.9929 28.8915 100.323 29.2454C100.677 29.5758 100.854 30.0006 100.854 30.5197V39.8291C100.854 41.363 101.208 42.5075 101.916 43.2627C102.648 44.0178 103.71 44.3954 105.102 44.3954C106.518 44.3954 107.591 44.0178 108.323 43.2627C109.055 42.5075 109.42 41.363 109.42 39.8291V30.5197C109.42 30.0006 109.586 29.5758 109.916 29.2454C110.246 28.8915 110.671 28.7145 111.19 28.7145ZM126.13 28.2897C127.404 28.2897 128.537 28.4313 129.528 28.7145C130.519 28.974 131.286 29.3516 131.829 29.8472C132.395 30.3191 132.678 30.8737 132.678 31.5108C132.678 31.912 132.56 32.2896 132.324 32.6435C132.088 32.9739 131.734 33.1391 131.262 33.1391C130.932 33.1391 130.649 33.0801 130.413 32.9621C130.2 32.8441 130 32.7025 129.811 32.5374C129.622 32.3722 129.386 32.207 129.103 32.0418C128.843 31.9002 128.454 31.7822 127.935 31.6878C127.439 31.5934 126.991 31.5462 126.59 31.5462C125.339 31.5462 124.254 31.8294 123.333 32.3958C122.437 32.9621 121.729 33.7291 121.209 34.6966C120.714 35.6641 120.466 36.7614 120.466 37.9885C120.466 39.2156 120.714 40.3129 121.209 41.2804C121.729 42.2479 122.425 43.0149 123.298 43.5812C124.195 44.1476 125.233 44.4308 126.413 44.4308C127.121 44.4308 127.699 44.3836 128.147 44.2892C128.596 44.1712 128.985 44.0296 129.315 43.8644C129.669 43.652 129.964 43.4397 130.2 43.2273C130.46 42.9913 130.814 42.8733 131.262 42.8733C131.781 42.8733 132.171 43.0385 132.43 43.3689C132.714 43.6756 132.855 44.065 132.855 44.537C132.855 45.0561 132.537 45.5635 131.899 46.059C131.286 46.531 130.46 46.9204 129.422 47.2271C128.383 47.5339 127.239 47.6873 125.988 47.6873C124.147 47.6873 122.543 47.2625 121.174 46.413C119.829 45.5635 118.779 44.4072 118.024 42.9441C117.292 41.481 116.926 39.8291 116.926 37.9885C116.926 36.1243 117.316 34.4724 118.095 33.0329C118.873 31.5698 119.959 30.4135 121.351 29.564C122.743 28.7145 124.336 28.2897 126.13 28.2897ZM138.291 47.3333C137.795 47.3333 137.37 47.1681 137.016 46.8378C136.686 46.4838 136.521 46.0472 136.521 45.5281V22.9447C136.521 22.4256 136.686 22.0008 137.016 21.6705C137.37 21.3165 137.795 21.1395 138.291 21.1395C138.81 21.1395 139.234 21.3165 139.565 21.6705C139.895 22.0008 140.06 22.4256 140.06 22.9447V45.5281C140.06 46.0472 139.895 46.4838 139.565 46.8378C139.234 47.1681 138.81 47.3333 138.291 47.3333ZM149.83 28.6437C150.278 28.6437 150.668 28.8325 150.998 29.21C151.328 29.5876 151.494 29.9652 151.494 30.3427C151.494 30.8147 151.269 31.2513 150.821 31.6524L139.742 41.5636L139.6 37.4929L148.52 29.21C148.898 28.8325 149.334 28.6437 149.83 28.6437ZM150.255 47.2979C149.759 47.2979 149.334 47.0973 148.98 46.6962L141.901 39.2274L144.591 36.7496L151.494 44.2184C151.871 44.6196 152.06 45.0679 152.06 45.5635C152.06 46.0826 151.848 46.5074 151.423 46.8378C151.022 47.1445 150.632 47.2979 150.255 47.2979ZM173.021 38.0239C173.021 39.9117 172.608 41.5872 171.782 43.0503C170.956 44.4898 169.835 45.6225 168.419 46.4484C167.003 47.2743 165.41 47.6873 163.64 47.6873C161.87 47.6873 160.278 47.2743 158.862 46.4484C157.446 45.6225 156.313 44.4898 155.464 43.0503C154.638 41.5872 154.225 39.9117 154.225 38.0239C154.225 36.1125 154.638 34.437 155.464 32.9975C156.313 31.5344 157.446 30.3899 158.862 29.564C160.278 28.7145 161.87 28.2897 163.64 28.2897C165.41 28.2897 167.003 28.7145 168.419 29.564C169.835 30.3899 170.956 31.5344 171.782 32.9975C172.608 34.437 173.021 36.1125 173.021 38.0239ZM169.481 38.0239C169.481 36.726 169.221 35.6051 168.702 34.6612C168.183 33.6937 167.475 32.9385 166.578 32.3958C165.705 31.8294 164.726 31.5462 163.64 31.5462C162.555 31.5462 161.564 31.8294 160.667 32.3958C159.77 32.9385 159.062 33.6937 158.543 34.6612C158.024 35.6051 157.764 36.726 157.764 38.0239C157.764 39.2746 158.024 40.3837 158.543 41.3512C159.062 42.3187 159.77 43.0739 160.667 43.6166C161.564 44.1594 162.555 44.4308 163.64 44.4308C164.726 44.4308 165.705 44.1594 166.578 43.6166C167.475 43.0739 168.183 42.3187 168.702 41.3512C169.221 40.3837 169.481 39.2746 169.481 38.0239ZM194.867 38.0239C194.867 39.9117 194.454 41.5872 193.628 43.0503C192.802 44.4898 191.681 45.6225 190.266 46.4484C188.85 47.2743 187.257 47.6873 185.487 47.6873C183.717 47.6873 182.124 47.2743 180.708 46.4484C179.292 45.6225 178.16 44.4898 177.31 43.0503C176.484 41.5872 176.071 39.9117 176.071 38.0239C176.071 36.1125 176.484 34.437 177.31 32.9975C178.16 31.5344 179.292 30.3899 180.708 29.564C182.124 28.7145 183.717 28.2897 185.487 28.2897C187.257 28.2897 188.85 28.7145 190.266 29.564C191.681 30.3899 192.802 31.5344 193.628 32.9975C194.454 34.437 194.867 36.1125 194.867 38.0239ZM191.327 38.0239C191.327 36.726 191.068 35.6051 190.549 34.6612C190.03 33.6937 189.322 32.9385 188.425 32.3958C187.552 31.8294 186.572 31.5462 185.487 31.5462C184.401 31.5462 183.41 31.8294 182.514 32.3958C181.617 32.9385 180.909 33.6937 180.39 34.6612C179.871 35.6051 179.611 36.726 179.611 38.0239C179.611 39.2746 179.871 40.3837 180.39 41.3512C180.909 42.3187 181.617 43.0739 182.514 43.6166C183.41 44.1594 184.401 44.4308 185.487 44.4308C186.572 44.4308 187.552 44.1594 188.425 43.6166C189.322 43.0739 190.03 42.3187 190.549 41.3512C191.068 40.3837 191.327 39.2746 191.327 38.0239ZM205.068 47.6873C203.676 47.6873 202.402 47.3687 201.245 46.7316C200.089 46.0944 199.157 45.2095 198.449 44.0768C198.237 43.7228 198.13 43.3925 198.13 43.0857C198.13 42.5901 198.319 42.1772 198.697 41.8468C199.074 41.5164 199.452 41.3512 199.829 41.3512C200.16 41.3512 200.455 41.4456 200.714 41.6344C200.998 41.7996 201.257 42.012 201.493 42.2715C201.965 42.8851 202.496 43.3571 203.086 43.6874C203.676 43.9942 204.337 44.1476 205.068 44.1476C205.918 44.1476 206.685 43.9588 207.369 43.5812C208.053 43.1801 208.596 42.6491 208.997 41.9884C209.398 41.304 209.599 40.5607 209.599 39.7584V24.3606C209.599 23.8415 209.788 23.4167 210.165 23.0863C210.543 22.7324 210.979 22.5554 211.475 22.5554C212.018 22.5554 212.454 22.7324 212.785 23.0863C213.115 23.4167 213.28 23.8415 213.28 24.3606V39.7584C213.28 41.1978 212.915 42.5193 212.183 43.7228C211.475 44.9263 210.496 45.8938 209.245 46.6254C208.018 47.3333 206.626 47.6873 205.068 47.6873ZM226.646 47.6873C224.947 47.6873 223.437 47.4513 222.115 46.9794C220.794 46.5074 219.531 45.7287 218.328 44.6432C218.068 44.4544 217.868 44.2302 217.726 43.9706C217.608 43.6874 217.549 43.4043 217.549 43.1211C217.549 42.6727 217.714 42.2715 218.045 41.9176C218.375 41.5636 218.788 41.3866 219.283 41.3866C219.661 41.3866 220.015 41.5164 220.345 41.776C221.242 42.6019 222.174 43.2273 223.142 43.652C224.133 44.0768 225.289 44.2892 226.611 44.2892C227.555 44.2892 228.416 44.1358 229.195 43.829C229.997 43.5222 230.634 43.1093 231.106 42.5901C231.578 42.071 231.814 41.4692 231.814 40.7849C231.814 39.9353 231.566 39.2392 231.071 38.6964C230.599 38.1301 229.903 37.6699 228.982 37.316C228.086 36.9384 227 36.6198 225.726 36.3602C224.546 36.1479 223.484 35.8529 222.54 35.4753C221.62 35.0977 220.829 34.6258 220.168 34.0594C219.508 33.4695 219 32.7733 218.646 31.971C218.292 31.1687 218.115 30.2365 218.115 29.1746C218.115 27.7351 218.493 26.4963 219.248 25.4579C220.003 24.4196 221.03 23.6173 222.328 23.0509C223.625 22.4846 225.089 22.2014 226.717 22.2014C228.203 22.2014 229.596 22.4374 230.894 22.9093C232.192 23.3577 233.242 23.9713 234.044 24.75C234.61 25.2456 234.894 25.7765 234.894 26.3429C234.894 26.7676 234.717 27.1688 234.363 27.5464C234.032 27.9003 233.643 28.0773 233.194 28.0773C232.864 28.0773 232.581 27.9829 232.345 27.7941C231.967 27.393 231.46 27.039 230.823 26.7322C230.186 26.4019 229.501 26.1305 228.77 25.9181C228.062 25.7057 227.378 25.5995 226.717 25.5995C225.655 25.5995 224.746 25.7529 223.991 26.0597C223.236 26.3429 222.658 26.744 222.257 27.2632C221.856 27.7587 221.655 28.3487 221.655 29.033C221.655 29.8354 221.879 30.4961 222.328 31.0153C222.8 31.5344 223.448 31.9592 224.274 32.2896C225.1 32.5963 226.044 32.8795 227.106 33.1391C228.404 33.4223 229.56 33.7409 230.575 34.0948C231.613 34.4488 232.487 34.909 233.194 35.4753C233.902 36.0181 234.445 36.7024 234.823 37.5283C235.2 38.3543 235.389 39.3808 235.389 40.6079C235.389 42.0238 234.988 43.2627 234.186 44.3246C233.383 45.3865 232.321 46.2124 231 46.8024C229.702 47.3923 228.251 47.6873 226.646 47.6873Z" fill="white"/>
</svg>
