<svg width="218" height="47" viewBox="0 0 218 47" fill="none" xmlns="http://www.w3.org/2000/svg">
<circle cx="21.5637" cy="21.5637" r="20.3137" stroke="#05CEAA" stroke-width="2.5"/>
<path d="M36.5197 17.5012C35.904 16.9443 35.1713 16.241 34.937 15.9771C34.468 13.2219 32.0353 11.141 29.2216 11.141C27.7561 11.141 26.3493 11.698 25.2647 12.6944L25.2354 12.7237L25.2062 12.7529L15.5541 32.049C15.3783 32.3128 15.4022 32.6204 15.6659 32.8255C15.7831 32.9134 15.9004 32.9426 16.0176 32.9426C16.1934 32.9426 16.3692 32.8547 16.4571 32.7081L26.0556 13.5149C26.935 12.7234 28.0486 12.2838 29.2211 12.2838C31.5365 12.2838 33.5004 14.0131 33.8521 16.27C33.8813 16.4458 33.8813 16.5632 34.7019 17.3251H32.7674C32.4742 17.3251 32.24 17.5304 32.2105 17.7942C32.1813 17.9113 32.1813 18.0287 32.2397 18.1458C32.5621 18.9957 32.7087 19.9045 32.7087 20.8423C32.7087 25.0922 29.2503 28.5508 25.0003 28.5508C23.828 28.5508 24.0132 28.5844 22.9873 28.0862L27.6232 18.2024C27.799 17.9386 27.7403 17.5868 27.506 17.411C27.2717 17.2352 26.8904 17.2938 26.7146 17.5281L21.6977 27.9107C21.5218 28.1744 21.5805 28.5263 21.8148 28.7021C21.8441 28.7314 21.8735 28.7608 21.9027 28.7608C23.2511 29.5228 23.4467 29.6357 25.0001 29.6357C29.8656 29.6357 33.8517 25.6788 33.8517 20.7841C33.8517 19.9927 33.7345 19.2015 33.5293 18.4393H36.1379C36.3724 18.4393 36.5774 18.2927 36.6653 18.0876C36.7537 17.8824 36.695 17.6479 36.5191 17.5015L36.5197 17.5012Z" fill="#05CEAA" stroke="#05CEAA" stroke-width="1.11784" stroke-linejoin="round"/>
<path d="M16.6698 23.9986C16.5857 23.9986 16.4946 23.9776 16.3965 23.9355C16.2984 23.8935 16.2073 23.8514 16.1232 23.8094L8.74467 19.6051C8.5765 19.507 8.45738 19.4019 8.38731 19.2898C8.33125 19.1637 8.30322 19.0235 8.30322 18.8694C8.30322 18.7012 8.34527 18.5611 8.42935 18.4489C8.52745 18.3228 8.65358 18.2177 8.80774 18.1336L16.0601 14.0134C16.1442 13.9714 16.2283 13.9363 16.3124 13.9083C16.3965 13.8663 16.4736 13.8452 16.5436 13.8452C16.7258 13.8312 16.88 13.8873 17.0061 14.0134C17.1322 14.1395 17.1953 14.2867 17.1953 14.4549C17.1953 14.595 17.1603 14.7071 17.0902 14.7912C17.0341 14.8753 16.943 14.9524 16.8169 15.0224L9.41736 19.1847L9.37532 18.5961L16.7328 22.7583C16.929 22.8564 17.0622 22.9545 17.1322 23.0526C17.2023 23.1367 17.2373 23.2488 17.2373 23.389C17.2373 23.5431 17.1743 23.6833 17.0481 23.8094C16.936 23.9355 16.8099 23.9986 16.6698 23.9986Z" fill="#05CEAA" stroke="#05CEAA" stroke-width="0.999896"/>
<path d="M72.7928 11.9713C73.312 12.2308 73.607 12.632 73.6777 13.1748C73.7721 13.7175 73.6424 14.2131 73.2884 14.6614C73.0288 15.0154 72.6866 15.216 72.2619 15.2632C71.8607 15.3104 71.4595 15.2278 71.0584 15.0154C70.374 14.6614 69.6543 14.3783 68.8991 14.1659C68.144 13.9535 67.3417 13.8473 66.4921 13.8473C65.1471 13.8473 63.9318 14.0715 62.8462 14.5199C61.7843 14.9446 60.864 15.57 60.0853 16.3959C59.3065 17.1982 58.7048 18.1539 58.28 19.2631C57.8789 20.3722 57.6783 21.5993 57.6783 22.9444C57.6783 24.431 57.9025 25.7525 58.3508 26.9088C58.7992 28.0415 59.4127 29.0091 60.1915 29.8114C60.9938 30.5901 61.9259 31.1801 62.9878 31.5812C64.0733 31.9588 65.2414 32.1476 66.4921 32.1476C67.2945 32.1476 68.0732 32.0532 68.8283 31.8644C69.6071 31.6756 70.3386 31.3925 71.023 31.0149C71.4477 30.8025 71.8607 30.7317 72.2619 30.8025C72.6866 30.8497 73.0288 31.0503 73.2884 31.4043C73.6895 31.8998 73.8311 32.4072 73.7131 32.9263C73.6188 33.4219 73.3238 33.7995 72.8282 34.059C72.2383 34.3894 71.5893 34.6726 70.8814 34.9086C70.1734 35.1445 69.4537 35.3333 68.7222 35.4749C67.9906 35.6165 67.2473 35.6873 66.4921 35.6873C64.7931 35.6873 63.1884 35.4041 61.6781 34.8378C60.1679 34.2714 58.8228 33.4455 57.6429 32.36C56.463 31.2745 55.5308 29.9412 54.8465 28.3601C54.1858 26.779 53.8554 24.9738 53.8554 22.9444C53.8554 21.1273 54.1622 19.4518 54.7757 17.918C55.4129 16.3605 56.2978 15.0272 57.4305 13.9181C58.5868 12.7854 59.9319 11.9123 61.4658 11.2987C62.9996 10.6616 64.6751 10.343 66.4921 10.343C67.6248 10.343 68.7222 10.4846 69.7841 10.7678C70.8696 11.0509 71.8725 11.4521 72.7928 11.9713ZM91.1902 16.7145C91.6857 16.7145 92.0987 16.8915 92.4291 17.2454C92.783 17.5758 92.96 18.0006 92.96 18.5197V27.8291C92.96 30.2833 92.2757 32.2066 90.907 33.5989C89.5383 34.9676 87.6033 35.6519 85.1019 35.6519C82.6241 35.6519 80.7008 34.9676 79.3322 33.5989C77.9871 32.2066 77.3145 30.2833 77.3145 27.8291V18.5197C77.3145 18.0006 77.4797 17.5758 77.8101 17.2454C78.1405 16.8915 78.5652 16.7145 79.0844 16.7145C79.5799 16.7145 79.9929 16.8915 80.3233 17.2454C80.6772 17.5758 80.8542 18.0006 80.8542 18.5197V27.8291C80.8542 29.363 81.2082 30.5075 81.9161 31.2627C82.6477 32.0178 83.7096 32.3954 85.1019 32.3954C86.5178 32.3954 87.5915 32.0178 88.323 31.2627C89.0545 30.5075 89.4203 29.363 89.4203 27.8291V18.5197C89.4203 18.0006 89.5855 17.5758 89.9159 17.2454C90.2463 16.8915 90.671 16.7145 91.1902 16.7145ZM106.13 16.2897C107.404 16.2897 108.537 16.4313 109.528 16.7145C110.519 16.974 111.286 17.3516 111.829 17.8472C112.395 18.3191 112.678 18.8737 112.678 19.5108C112.678 19.912 112.56 20.2896 112.324 20.6435C112.088 20.9739 111.734 21.1391 111.262 21.1391C110.932 21.1391 110.649 21.0801 110.413 20.9621C110.2 20.8441 110 20.7025 109.811 20.5374C109.622 20.3722 109.386 20.207 109.103 20.0418C108.843 19.9002 108.454 19.7822 107.935 19.6878C107.439 19.5934 106.991 19.5462 106.59 19.5462C105.339 19.5462 104.254 19.8294 103.333 20.3958C102.437 20.9621 101.729 21.7291 101.209 22.6966C100.714 23.6641 100.466 24.7614 100.466 25.9885C100.466 27.2156 100.714 28.3129 101.209 29.2804C101.729 30.2479 102.425 31.0149 103.298 31.5812C104.195 32.1476 105.233 32.4308 106.413 32.4308C107.121 32.4308 107.699 32.3836 108.147 32.2892C108.596 32.1712 108.985 32.0296 109.315 31.8644C109.669 31.652 109.964 31.4397 110.2 31.2273C110.46 30.9913 110.814 30.8733 111.262 30.8733C111.781 30.8733 112.171 31.0385 112.43 31.3689C112.714 31.6756 112.855 32.065 112.855 32.537C112.855 33.0561 112.537 33.5635 111.899 34.059C111.286 34.531 110.46 34.9204 109.422 35.2271C108.383 35.5339 107.239 35.6873 105.988 35.6873C104.147 35.6873 102.543 35.2625 101.174 34.413C99.829 33.5635 98.7789 32.4072 98.0237 30.9441C97.2922 29.481 96.9264 27.8291 96.9264 25.9885C96.9264 24.1243 97.3158 22.4724 98.0945 21.0329C98.8733 19.5698 99.9588 18.4135 101.351 17.564C102.743 16.7145 104.336 16.2897 106.13 16.2897ZM118.291 35.3333C117.795 35.3333 117.37 35.1681 117.016 34.8378C116.686 34.4838 116.521 34.0472 116.521 33.5281V10.9447C116.521 10.4256 116.686 10.0008 117.016 9.67045C117.37 9.31648 117.795 9.13949 118.291 9.13949C118.81 9.13949 119.234 9.31648 119.565 9.67045C119.895 10.0008 120.06 10.4256 120.06 10.9447V33.5281C120.06 34.0472 119.895 34.4838 119.565 34.8378C119.234 35.1681 118.81 35.3333 118.291 35.3333ZM129.83 16.6437C130.278 16.6437 130.668 16.8325 130.998 17.21C131.328 17.5876 131.494 17.9652 131.494 18.3427C131.494 18.8147 131.269 19.2513 130.821 19.6524L119.742 29.5636L119.6 25.4929L128.52 17.21C128.898 16.8325 129.334 16.6437 129.83 16.6437ZM130.255 35.2979C129.759 35.2979 129.334 35.0973 128.98 34.6962L121.901 27.2274L124.591 24.7496L131.494 32.2184C131.871 32.6196 132.06 33.0679 132.06 33.5635C132.06 34.0826 131.848 34.5074 131.423 34.8378C131.022 35.1445 130.632 35.2979 130.255 35.2979ZM153.021 26.0239C153.021 27.9117 152.608 29.5872 151.782 31.0503C150.956 32.4898 149.835 33.6225 148.419 34.4484C147.003 35.2743 145.41 35.6873 143.64 35.6873C141.87 35.6873 140.278 35.2743 138.862 34.4484C137.446 33.6225 136.313 32.4898 135.464 31.0503C134.638 29.5872 134.225 27.9117 134.225 26.0239C134.225 24.1125 134.638 22.437 135.464 20.9975C136.313 19.5344 137.446 18.3899 138.862 17.564C140.278 16.7145 141.87 16.2897 143.64 16.2897C145.41 16.2897 147.003 16.7145 148.419 17.564C149.835 18.3899 150.956 19.5344 151.782 20.9975C152.608 22.437 153.021 24.1125 153.021 26.0239ZM149.481 26.0239C149.481 24.726 149.221 23.6051 148.702 22.6612C148.183 21.6937 147.475 20.9385 146.578 20.3958C145.705 19.8294 144.726 19.5462 143.64 19.5462C142.555 19.5462 141.564 19.8294 140.667 20.3958C139.77 20.9385 139.062 21.6937 138.543 22.6612C138.024 23.6051 137.764 24.726 137.764 26.0239C137.764 27.2746 138.024 28.3837 138.543 29.3512C139.062 30.3187 139.77 31.0739 140.667 31.6166C141.564 32.1594 142.555 32.4308 143.64 32.4308C144.726 32.4308 145.705 32.1594 146.578 31.6166C147.475 31.0739 148.183 30.3187 148.702 29.3512C149.221 28.3837 149.481 27.2746 149.481 26.0239ZM174.867 26.0239C174.867 27.9117 174.454 29.5872 173.628 31.0503C172.802 32.4898 171.681 33.6225 170.266 34.4484C168.85 35.2743 167.257 35.6873 165.487 35.6873C163.717 35.6873 162.124 35.2743 160.708 34.4484C159.292 33.6225 158.16 32.4898 157.31 31.0503C156.484 29.5872 156.071 27.9117 156.071 26.0239C156.071 24.1125 156.484 22.437 157.31 20.9975C158.16 19.5344 159.292 18.3899 160.708 17.564C162.124 16.7145 163.717 16.2897 165.487 16.2897C167.257 16.2897 168.85 16.7145 170.266 17.564C171.681 18.3899 172.802 19.5344 173.628 20.9975C174.454 22.437 174.867 24.1125 174.867 26.0239ZM171.327 26.0239C171.327 24.726 171.068 23.6051 170.549 22.6612C170.03 21.6937 169.322 20.9385 168.425 20.3958C167.552 19.8294 166.572 19.5462 165.487 19.5462C164.401 19.5462 163.41 19.8294 162.514 20.3958C161.617 20.9385 160.909 21.6937 160.39 22.6612C159.871 23.6051 159.611 24.726 159.611 26.0239C159.611 27.2746 159.871 28.3837 160.39 29.3512C160.909 30.3187 161.617 31.0739 162.514 31.6166C163.41 32.1594 164.401 32.4308 165.487 32.4308C166.572 32.4308 167.552 32.1594 168.425 31.6166C169.322 31.0739 170.03 30.3187 170.549 29.3512C171.068 28.3837 171.327 27.2746 171.327 26.0239ZM185.068 35.6873C183.676 35.6873 182.402 35.3687 181.245 34.7316C180.089 34.0944 179.157 33.2095 178.449 32.0768C178.237 31.7228 178.13 31.3925 178.13 31.0857C178.13 30.5901 178.319 30.1772 178.697 29.8468C179.074 29.5164 179.452 29.3512 179.829 29.3512C180.16 29.3512 180.455 29.4456 180.714 29.6344C180.998 29.7996 181.257 30.012 181.493 30.2715C181.965 30.8851 182.496 31.3571 183.086 31.6874C183.676 31.9942 184.337 32.1476 185.068 32.1476C185.918 32.1476 186.685 31.9588 187.369 31.5812C188.053 31.1801 188.596 30.6491 188.997 29.9884C189.398 29.304 189.599 28.5607 189.599 27.7584V12.3606C189.599 11.8415 189.788 11.4167 190.165 11.0863C190.543 10.7324 190.979 10.5554 191.475 10.5554C192.018 10.5554 192.454 10.7324 192.785 11.0863C193.115 11.4167 193.28 11.8415 193.28 12.3606V27.7584C193.28 29.1978 192.915 30.5193 192.183 31.7228C191.475 32.9263 190.496 33.8938 189.245 34.6254C188.018 35.3333 186.626 35.6873 185.068 35.6873ZM206.646 35.6873C204.947 35.6873 203.437 35.4513 202.115 34.9794C200.794 34.5074 199.531 33.7287 198.328 32.6432C198.068 32.4544 197.868 32.2302 197.726 31.9706C197.608 31.6874 197.549 31.4043 197.549 31.1211C197.549 30.6727 197.714 30.2715 198.045 29.9176C198.375 29.5636 198.788 29.3866 199.283 29.3866C199.661 29.3866 200.015 29.5164 200.345 29.776C201.242 30.6019 202.174 31.2273 203.142 31.652C204.133 32.0768 205.289 32.2892 206.611 32.2892C207.555 32.2892 208.416 32.1358 209.195 31.829C209.997 31.5222 210.634 31.1093 211.106 30.5901C211.578 30.071 211.814 29.4692 211.814 28.7849C211.814 27.9353 211.566 27.2392 211.071 26.6964C210.599 26.1301 209.903 25.6699 208.982 25.316C208.086 24.9384 207 24.6198 205.726 24.3602C204.546 24.1479 203.484 23.8529 202.54 23.4753C201.62 23.0977 200.829 22.6258 200.168 22.0594C199.508 21.4695 199 20.7733 198.646 19.971C198.292 19.1687 198.115 18.2365 198.115 17.1746C198.115 15.7351 198.493 14.4963 199.248 13.4579C200.003 12.4196 201.03 11.6173 202.328 11.0509C203.625 10.4846 205.089 10.2014 206.717 10.2014C208.203 10.2014 209.596 10.4374 210.894 10.9093C212.192 11.3577 213.242 11.9713 214.044 12.75C214.61 13.2456 214.894 13.7765 214.894 14.3429C214.894 14.7676 214.717 15.1688 214.363 15.5464C214.032 15.9003 213.643 16.0773 213.194 16.0773C212.864 16.0773 212.581 15.9829 212.345 15.7941C211.967 15.393 211.46 15.039 210.823 14.7322C210.186 14.4019 209.501 14.1305 208.77 13.9181C208.062 13.7057 207.378 13.5995 206.717 13.5995C205.655 13.5995 204.746 13.7529 203.991 14.0597C203.236 14.3429 202.658 14.744 202.257 15.2632C201.856 15.7587 201.655 16.3487 201.655 17.033C201.655 17.8354 201.879 18.4961 202.328 19.0153C202.8 19.5344 203.448 19.9592 204.274 20.2896C205.1 20.5963 206.044 20.8795 207.106 21.1391C208.404 21.4223 209.56 21.7409 210.575 22.0948C211.613 22.4488 212.487 22.909 213.194 23.4753C213.902 24.0181 214.445 24.7024 214.823 25.5283C215.2 26.3543 215.389 27.3808 215.389 28.6079C215.389 30.0238 214.988 31.2627 214.186 32.3246C213.383 33.3865 212.321 34.2124 211 34.8024C209.702 35.3923 208.251 35.6873 206.646 35.6873Z" fill="#05CEAA"/>
</svg>
