<svg width="74" height="78" viewBox="0 0 74 78" fill="none" xmlns="http://www.w3.org/2000/svg">
<circle cx="35.9667" cy="35.9667" r="34.2333" stroke="#05CEAA" stroke-width="3.46667"/>
<path d="M62.5532 28.8037C61.3591 27.7234 59.9377 26.3592 59.4833 25.8473C58.5736 20.5029 53.8547 16.4667 48.3969 16.4667C45.5543 16.4667 42.8254 17.547 40.7216 19.4799L40.6648 19.5366L40.6081 19.5933L21.8857 57.0226C21.5447 57.5342 21.5909 58.1309 22.1025 58.5287C22.3297 58.6992 22.5574 58.7559 22.7846 58.7559C23.1257 58.7559 23.4667 58.5854 23.6373 58.301L42.2558 21.0713C43.9615 19.5361 46.1216 18.6834 48.3959 18.6834C52.8871 18.6834 56.6967 22.0377 57.3787 26.4155C57.4354 26.7566 57.4354 26.9842 59.0273 28.4622H55.2749C54.7062 28.4622 54.2517 28.8604 54.1945 29.372C54.1378 29.5992 54.1378 29.8268 54.2513 30.0541C54.8767 31.7026 55.161 33.4655 55.161 35.2846C55.161 43.5282 48.4526 50.237 40.2086 50.237C37.9347 50.237 38.2941 50.3022 36.304 49.3357L45.2964 30.1638C45.6375 29.6522 45.5237 28.9697 45.0692 28.6287C44.6147 28.2876 43.8751 28.4014 43.534 28.8559L33.8025 48.9953C33.4614 49.5069 33.5753 50.1895 34.0297 50.5305C34.0865 50.5872 34.1436 50.6443 34.2003 50.6443C36.8157 52.1224 37.1952 52.3414 40.2084 52.3414C49.6462 52.3414 57.378 44.666 57.378 35.1717C57.378 33.6366 57.1508 32.1018 56.7526 30.6234H61.8126C62.2675 30.6234 62.6652 30.339 62.8357 29.9412C63.0071 29.5431 62.8932 29.0882 62.5522 28.8043L62.5532 28.8037Z" fill="#05CEAA" stroke="#05CEAA" stroke-width="1.3" stroke-linejoin="round"/>
<path d="M25.0694 39.5883C24.9011 39.5883 24.7187 39.5462 24.5224 39.4621C24.326 39.3779 24.1437 39.2938 23.9753 39.2096L9.20562 30.7938C8.86899 30.5974 8.63054 30.387 8.49028 30.1626C8.37807 29.9101 8.32196 29.6296 8.32196 29.321C8.32196 28.9844 8.40612 28.7039 8.57443 28.4795C8.7708 28.227 9.02328 28.0166 9.33186 27.8483L23.8491 19.6008C24.0174 19.5166 24.1857 19.4465 24.3541 19.3904C24.5224 19.3062 24.6767 19.2642 24.8169 19.2642C25.1816 19.2361 25.4902 19.3483 25.7427 19.6008C25.9951 19.8533 26.1214 20.1478 26.1214 20.4844C26.1214 20.765 26.0512 20.9894 25.911 21.1577C25.7988 21.326 25.6164 21.4803 25.3639 21.6206L10.5521 29.9522L10.468 28.774L25.1956 37.1056C25.5884 37.302 25.8549 37.4984 25.9951 37.6947C26.1354 37.8631 26.2055 38.0875 26.2055 38.368C26.2055 38.6766 26.0793 38.9571 25.8268 39.2096C25.6024 39.4621 25.3499 39.5883 25.0694 39.5883Z" fill="#05CEAA" stroke="#05CEAA" stroke-width="1.12667"/>
</svg>
